<svg width="1675" height="1669" viewBox="0 0 1675 1669" fill="none" xmlns="http://www.w3.org/2000/svg">
<g opacity="0.8" filter="url(#filter0_d_205_176)">
<g filter="url(#filter1_i_205_176)">
<rect x="218" y="456" width="1241" height="1025" rx="45" fill="#F0F0F0"/>
</g>
<g filter="url(#filter2_i_205_176)">
<path d="M218 499.163C218 474.31 238.147 454.163 263 454.163H1414C1438.85 454.163 1459 474.31 1459 499.163V710.413H218V499.163Z" fill="#F83184"/>
</g>
<circle cx="450" cy="513" r="41" fill="#7E2048"/>
<g filter="url(#filter3_i_205_176)">
<rect x="419" y="357" width="62" height="181" rx="31" fill="#A989DE"/>
</g>
<circle cx="645" cy="513" r="41" fill="#7E2048"/>
<g filter="url(#filter4_i_205_176)">
<rect x="614" y="357" width="62" height="181" rx="31" fill="#A989DE"/>
</g>
<circle cx="839" cy="513" r="41" fill="#7E2048"/>
<g filter="url(#filter5_i_205_176)">
<rect x="808" y="357" width="62" height="181" rx="31" fill="#A989DE"/>
</g>
<circle cx="1034" cy="513" r="41" fill="#7E2048"/>
<g filter="url(#filter6_i_205_176)">
<rect x="1003" y="357" width="62" height="181" rx="31" fill="#A989DE"/>
</g>
<circle cx="1228" cy="513" r="41" fill="#7E2048"/>
<g filter="url(#filter7_i_205_176)">
<rect x="1197" y="357" width="62" height="181" rx="31" fill="#A989DE"/>
</g>
<rect x="366" y="841" width="105" height="105" rx="30" fill="#C9C9C9"/>
<rect x="366" y="1025" width="105" height="105" rx="30" fill="#C9C9C9"/>
<rect x="366" y="1209" width="105" height="105" rx="30" fill="#F95A9D"/>
<rect x="576" y="841" width="105" height="105" rx="30" fill="#C9C9C9"/>
<rect x="576" y="1025" width="105" height="105" rx="30" fill="#C9C9C9"/>
<rect x="576" y="1209" width="105" height="105" rx="30" fill="#C9C9C9"/>
<rect x="786" y="841" width="105" height="105" rx="30" fill="#C9C9C9"/>
<rect x="786" y="1025" width="105" height="105" rx="30" fill="#C9C9C9"/>
<rect x="786" y="1209" width="105" height="105" rx="30" fill="#C9C9C9"/>
<rect x="996" y="841" width="105" height="105" rx="30" fill="#C9C9C9"/>
<rect x="996" y="1025" width="105" height="105" rx="30" fill="#C9C9C9"/>
<rect x="996" y="1209" width="105" height="105" rx="30" fill="#C9C9C9"/>
<rect x="1206" y="841" width="105" height="105" rx="30" fill="#C9C9C9"/>
<rect x="1206" y="1025" width="105" height="105" rx="30" fill="#C9C9C9"/>
<rect x="1206" y="1209" width="105" height="105" rx="30" fill="#C9C9C9"/>
<path d="M408.823 875.7C408.823 856.615 393.025 841 373.5 841H89.5C69.975 841 54 856.615 54 875.7V1083.9C54 1102.99 69.975 1118.6 89.5 1118.6H338L409 1188L408.823 875.7Z" fill="#F83184"/>
<g clip-path="url(#clip0_205_176)">
<path d="M200.323 923.24L190.075 912.992C172.875 926.107 161.552 946.317 160.548 969.25H174.882C175.957 950.259 185.703 933.632 200.323 923.24ZM289.118 969.25H303.452C302.377 946.317 291.053 926.107 273.925 912.992L263.748 923.24C278.225 933.632 288.043 950.259 289.118 969.25ZM275 972.834C275 950.832 263.247 932.414 242.75 927.54V922.667C242.75 916.719 237.948 911.917 232 911.917C226.052 911.917 221.25 916.719 221.25 922.667V927.54C200.682 932.414 189 950.76 189 972.834V1008.67L174.667 1023V1030.17H289.333V1023L275 1008.67V972.834ZM232 1051.67C233.003 1051.67 233.935 1051.6 234.867 1051.38C239.525 1050.38 243.323 1047.22 245.187 1042.92C245.903 1041.2 246.262 1039.34 246.262 1037.33H217.595C217.667 1045.22 224.045 1051.67 232 1051.67Z" fill="white"/>
</g>
<rect x="1245" y="1066" width="391" height="517" fill="white"/>
<path d="M1339.5 1304.75C1347.59 1304.75 1355.35 1301.54 1361.07 1295.82C1366.79 1290.1 1370 1282.34 1370 1274.25C1370 1266.16 1366.79 1258.4 1361.07 1252.68C1355.35 1246.96 1347.59 1243.75 1339.5 1243.75C1331.41 1243.75 1323.65 1246.96 1317.93 1252.68C1312.21 1258.4 1309 1266.16 1309 1274.25C1309 1282.34 1312.21 1290.1 1317.93 1295.82C1323.65 1301.54 1331.41 1304.75 1339.5 1304.75ZM1400.5 1274.25C1400.5 1266.16 1403.71 1258.4 1409.43 1252.68C1415.15 1246.96 1422.91 1243.75 1431 1243.75H1522.5C1530.59 1243.75 1538.35 1246.96 1544.07 1252.68C1549.79 1258.4 1553 1266.16 1553 1274.25C1553 1282.34 1549.79 1290.1 1544.07 1295.82C1538.35 1301.54 1530.59 1304.75 1522.5 1304.75H1431C1422.91 1304.75 1415.15 1301.54 1409.43 1295.82C1403.71 1290.1 1400.5 1282.34 1400.5 1274.25ZM1431 1335.25C1422.91 1335.25 1415.15 1338.46 1409.43 1344.18C1403.71 1349.9 1400.5 1357.66 1400.5 1365.75C1400.5 1373.84 1403.71 1381.6 1409.43 1387.32C1415.15 1393.04 1422.91 1396.25 1431 1396.25H1522.5C1530.59 1396.25 1538.35 1393.04 1544.07 1387.32C1549.79 1381.6 1553 1373.84 1553 1365.75C1553 1357.66 1549.79 1349.9 1544.07 1344.18C1538.35 1338.46 1530.59 1335.25 1522.5 1335.25H1431ZM1431 1426.75C1422.91 1426.75 1415.15 1429.96 1409.43 1435.68C1403.71 1441.4 1400.5 1449.16 1400.5 1457.25C1400.5 1465.34 1403.71 1473.1 1409.43 1478.82C1415.15 1484.54 1422.91 1487.75 1431 1487.75H1522.5C1530.59 1487.75 1538.35 1484.54 1544.07 1478.82C1549.79 1473.1 1553 1465.34 1553 1457.25C1553 1449.16 1549.79 1441.4 1544.07 1435.68C1538.35 1429.96 1530.59 1426.75 1522.5 1426.75H1431ZM1370 1365.75C1370 1373.84 1366.79 1381.6 1361.07 1387.32C1355.35 1393.04 1347.59 1396.25 1339.5 1396.25C1331.41 1396.25 1323.65 1393.04 1317.93 1387.32C1312.21 1381.6 1309 1373.84 1309 1365.75C1309 1357.66 1312.21 1349.9 1317.93 1344.18C1323.65 1338.46 1331.41 1335.25 1339.5 1335.25C1347.59 1335.25 1355.35 1338.46 1361.07 1344.18C1366.79 1349.9 1370 1357.66 1370 1365.75ZM1339.5 1487.75C1347.59 1487.75 1355.35 1484.54 1361.07 1478.82C1366.79 1473.1 1370 1465.34 1370 1457.25C1370 1449.16 1366.79 1441.4 1361.07 1435.68C1355.35 1429.96 1347.59 1426.75 1339.5 1426.75C1331.41 1426.75 1323.65 1429.96 1317.93 1435.68C1312.21 1441.4 1309 1449.16 1309 1457.25C1309 1465.34 1312.21 1473.1 1317.93 1478.82C1323.65 1484.54 1331.41 1487.75 1339.5 1487.75Z" fill="#35C8AE"/>
<path d="M1339.5 1015C1331.41 1015 1323.65 1018.21 1317.93 1023.93C1312.21 1029.65 1309 1037.41 1309 1045.5H1248C1231.82 1045.5 1216.31 1051.93 1204.87 1063.37C1193.43 1074.81 1187 1090.32 1187 1106.5V1564C1187 1580.18 1193.43 1595.69 1204.87 1607.13C1216.31 1618.57 1231.82 1625 1248 1625H1614C1630.18 1625 1645.69 1618.57 1657.13 1607.13C1668.57 1595.69 1675 1580.18 1675 1564V1106.5C1675 1090.32 1668.57 1074.81 1657.13 1063.37C1645.69 1051.93 1630.18 1045.5 1614 1045.5H1553C1553 1037.41 1549.79 1029.65 1544.07 1023.93C1538.35 1018.21 1530.59 1015 1522.5 1015H1339.5ZM1553 1106.5H1614V1564H1248V1106.5H1309V1137C1309 1145.09 1312.21 1152.85 1317.93 1158.57C1323.65 1164.29 1331.41 1167.5 1339.5 1167.5H1522.5C1530.59 1167.5 1538.35 1164.29 1544.07 1158.57C1549.79 1152.85 1553 1145.09 1553 1137V1106.5ZM1370 1106.5V1076H1492V1106.5H1370Z" fill="#35C8AE"/>
</g>
<path d="M580.191 119.98C580.191 125.358 578.779 129.915 575.953 133.652C573.128 137.298 569.573 140.26 565.289 142.539C561.005 144.818 556.357 146.458 551.344 147.461C546.331 148.555 541.637 149.102 537.262 149.102C531.793 149.102 526.279 148.236 520.719 146.504C515.25 144.863 510.283 142.448 505.816 139.258L495.016 161.27L499.938 110.273C501.122 114.375 502.854 118.112 505.133 121.484C507.503 124.766 510.237 127.591 513.336 129.961C516.435 132.331 519.853 134.154 523.59 135.43C527.418 136.706 531.474 137.344 535.758 137.344C537.307 137.344 539.13 137.207 541.227 136.934C543.414 136.569 545.465 135.977 547.379 135.156C549.384 134.336 551.07 133.242 552.438 131.875C553.805 130.508 554.488 128.822 554.488 126.816C554.488 124.264 553.44 122.031 551.344 120.117C549.339 118.203 546.923 116.608 544.098 115.332C541.272 113.965 538.355 112.871 535.348 112.051C532.34 111.23 529.924 110.638 528.102 110.273C524.365 109.544 520.309 108.542 515.934 107.266C511.559 105.99 507.457 104.303 503.629 102.207C499.892 100.02 496.747 97.3307 494.195 94.1406C491.643 90.8594 490.367 86.849 490.367 82.1094C490.367 76.6406 491.643 72.0833 494.195 68.4375C496.747 64.7005 499.983 61.7383 503.902 59.5508C507.913 57.3633 512.288 55.8138 517.027 54.9023C521.858 53.9909 526.552 53.5352 531.109 53.5352C537.672 53.5352 543.551 54.3099 548.746 55.8594C553.941 57.4089 559.41 59.7786 565.152 62.9688L578.824 46.2891L573.766 91.2695C571.487 87.6237 568.798 84.2057 565.699 81.0156C562.691 77.8255 559.365 75.0456 555.719 72.6758C552.073 70.2148 548.154 68.3008 543.961 66.9336C539.859 65.4753 535.621 64.7461 531.246 64.7461C529.697 64.7461 527.874 64.974 525.777 65.4297C523.772 65.7943 521.812 66.4323 519.898 67.3438C517.984 68.1641 516.344 69.2578 514.977 70.625C513.701 71.9922 513.062 73.6784 513.062 75.6836C513.062 77.5977 513.837 79.2383 515.387 80.6055C517.027 81.8815 518.941 82.9753 521.129 83.8867C523.408 84.707 525.686 85.3906 527.965 85.9375C530.243 86.4844 532.066 86.8945 533.434 87.168C537.535 88.0794 542.275 89.3099 547.652 90.8594C553.03 92.4089 558.134 94.4596 562.965 97.0117C567.796 99.5638 571.852 102.708 575.133 106.445C578.505 110.182 580.191 114.694 580.191 119.98ZM661.402 117.109C661.493 122.943 660.673 128.138 658.941 132.695C657.301 137.253 654.84 141.081 651.559 144.18C648.368 147.279 644.449 149.603 639.801 151.152C635.243 152.793 630.139 153.613 624.488 153.613C618.928 153.613 613.688 152.702 608.766 150.879C603.935 149.056 599.697 146.458 596.051 143.086C592.496 139.714 589.671 135.703 587.574 131.055C585.478 126.406 584.43 121.211 584.43 115.469C584.43 109.453 585.615 103.984 587.984 99.0625C590.354 94.1406 593.544 89.9479 597.555 86.4844C601.565 83.0208 606.168 80.3776 611.363 78.5547C616.65 76.6406 622.164 75.6836 627.906 75.6836C631.005 75.6836 634.378 76.1849 638.023 77.1875C641.76 78.1901 645.224 79.6484 648.414 81.5625C651.695 83.4766 654.384 85.8464 656.48 88.6719C658.668 91.4974 659.762 94.7786 659.762 98.5156C659.762 101.979 658.714 104.759 656.617 106.855C654.521 108.952 651.741 110 648.277 110C644.814 110 641.852 109.043 639.391 107.129C636.93 105.124 635.699 102.344 635.699 98.7891C635.699 97.6042 635.79 96.3737 635.973 95.0977C636.246 93.7305 636.702 92.5456 637.34 91.543C635.79 90.2669 634.104 89.3555 632.281 88.8086C630.458 88.2617 628.59 87.9883 626.676 87.9883C623.212 87.9883 620.25 88.8542 617.789 90.5859C615.419 92.2266 613.46 94.3229 611.91 96.875C610.452 99.4271 609.404 102.298 608.766 105.488C608.128 108.587 607.809 111.549 607.809 114.375C607.809 117.93 608.355 121.211 609.449 124.219C610.543 127.135 612.138 129.688 614.234 131.875C616.331 133.971 618.837 135.658 621.754 136.934C624.671 138.118 627.997 138.711 631.734 138.711C635.016 138.711 638.115 138.073 641.031 136.797C643.948 135.521 646.637 133.88 649.098 131.875C651.559 129.779 653.792 127.454 655.797 124.902C657.893 122.35 659.762 119.753 661.402 117.109ZM767.633 154.707L710.348 153.066L729.762 142.539V117.52C729.762 111.868 728.303 107.493 725.387 104.395C722.47 101.296 718.186 99.7461 712.535 99.7461C710.165 99.7461 707.477 100.02 704.469 100.566C701.552 101.022 699.046 101.797 696.949 102.891C696.676 108.086 696.402 113.281 696.129 118.477C695.947 123.581 695.764 128.73 695.582 133.926L712.945 144.316L655.66 146.641L677.672 134.473L674.117 42.5977L640.484 33.7109L700.367 24.8242L697.496 90.4492C699.775 89.7201 702.099 89.2188 704.469 88.9453C706.839 88.6719 709.208 88.5352 711.578 88.5352H712.125C716.044 88.5352 720.283 88.9453 724.84 89.7656C729.397 90.4948 733.59 91.8164 737.418 93.7305C741.337 95.5534 744.573 98.1055 747.125 101.387C749.677 104.577 750.953 108.633 750.953 113.555C750.953 115.286 750.771 117.428 750.406 119.98C750.133 122.533 749.768 125.176 749.312 127.91C748.857 130.645 748.355 133.288 747.809 135.84C747.262 138.301 746.806 140.352 746.441 141.992L767.633 154.707ZM836.812 120.117C836.812 120.755 836.767 121.393 836.676 122.031C836.676 122.669 836.676 123.307 836.676 123.945L781.031 125.039C782.216 130.417 784.905 134.382 789.098 136.934C793.29 139.486 798.03 140.762 803.316 140.762C805.868 140.762 808.466 140.579 811.109 140.215C813.753 139.85 816.35 139.258 818.902 138.438C821.454 137.617 823.87 136.569 826.148 135.293C828.427 133.926 830.478 132.331 832.301 130.508C831.298 134.336 829.612 137.708 827.242 140.625C824.872 143.542 822.047 145.957 818.766 147.871C815.576 149.785 812.066 151.198 808.238 152.109C804.501 153.112 800.764 153.613 797.027 153.613C791.923 153.613 787.047 152.702 782.398 150.879C777.841 149.056 773.831 146.549 770.367 143.359C766.995 140.169 764.306 136.341 762.301 131.875C760.296 127.409 759.293 122.533 759.293 117.246C759.293 111.686 760.432 106.628 762.711 102.07C764.99 97.513 767.997 93.6393 771.734 90.4492C775.471 87.168 779.801 84.6615 784.723 82.9297C789.645 81.1979 794.794 80.332 800.172 80.332C805.823 80.332 810.882 81.3802 815.348 83.4766C819.905 85.5729 823.779 88.444 826.969 92.0898C830.159 95.7357 832.574 99.974 834.215 104.805C835.947 109.544 836.812 114.648 836.812 120.117ZM815.895 113.145C815.712 110.684 815.211 108.314 814.391 106.035C813.57 103.757 812.431 101.751 810.973 100.02C809.514 98.2878 807.737 96.9206 805.641 95.918C803.635 94.8242 801.266 94.2773 798.531 94.2773C795.797 94.2773 793.427 94.7786 791.422 95.7812C789.417 96.7839 787.73 98.151 786.363 99.8828C784.996 101.523 783.857 103.483 782.945 105.762C782.125 107.949 781.487 110.228 781.031 112.598L815.895 113.145ZM949.469 161.543L902.164 168.105L902.848 156.211C900.204 156.849 897.516 157.305 894.781 157.578C892.047 157.852 889.312 157.988 886.578 157.988C881.201 157.988 875.777 157.35 870.309 156.074C864.931 154.889 860.055 152.93 855.68 150.195C851.396 147.461 847.887 143.906 845.152 139.531C842.418 135.156 841.051 129.824 841.051 123.535C841.051 118.431 842.145 113.874 844.332 109.863C846.52 105.762 849.391 102.298 852.945 99.4727C856.5 96.556 860.51 94.3229 864.977 92.7734C869.534 91.224 874.182 90.4492 878.922 90.4492C883.57 90.4492 888.219 90.9505 892.867 91.9531C897.607 92.8646 902.027 94.2773 906.129 96.1914L908.59 49.0234L878.375 34.668L934.703 38.6328L919.938 154.57L949.469 161.543ZM905.309 108.906C902.665 107.083 899.384 105.762 895.465 104.941C891.546 104.121 887.991 103.711 884.801 103.711C881.52 103.711 878.466 104.258 875.641 105.352C872.906 106.445 870.536 107.995 868.531 110C866.617 112.005 865.113 114.421 864.02 117.246C862.926 119.98 862.379 122.988 862.379 126.27C862.379 129.824 863.245 132.923 864.977 135.566C866.708 138.118 868.941 140.26 871.676 141.992C874.41 143.633 877.418 144.818 880.699 145.547C883.98 146.367 887.125 146.777 890.133 146.777C894.69 146.777 899.202 145.866 903.668 144.043L905.309 108.906ZM1032.59 144.59L995.133 151.562L995.543 139.258C994.54 140.534 993.264 141.673 991.715 142.676C990.165 143.587 988.479 144.362 986.656 145C984.924 145.547 983.147 145.957 981.324 146.23C979.501 146.504 977.77 146.641 976.129 146.641C964.736 146.641 956.533 143.906 951.52 138.438C946.507 132.969 944 124.72 944 113.691C944 109.408 944.046 105.215 944.137 101.113C944.228 97.0117 944.319 92.8646 944.41 88.6719C940.855 86.5755 937.255 84.5247 933.609 82.5195C929.964 80.5143 926.363 78.4635 922.809 76.3672L967.105 76.0938C966.467 82.6562 965.693 89.5833 964.781 96.875C963.961 104.076 963.551 110.911 963.551 117.383C963.551 123.125 964.827 127.318 967.379 129.961C969.931 132.604 974.078 133.926 979.82 133.926C982.737 133.926 985.654 133.105 988.57 131.465C991.487 129.824 993.811 127.865 995.543 125.586L997.32 90.5859L972.848 78.6914L1019.88 78.2812L1010.58 136.523L1032.59 144.59ZM1080.04 153.34L1017.83 155.664L1041.21 140.762L1036.7 37.4023L1004.57 25.5078L1062.4 24.8242L1058.3 140.078L1080.04 153.34ZM1149.21 120.117C1149.21 120.755 1149.17 121.393 1149.08 122.031C1149.08 122.669 1149.08 123.307 1149.08 123.945L1093.43 125.039C1094.62 130.417 1097.31 134.382 1101.5 136.934C1105.69 139.486 1110.43 140.762 1115.72 140.762C1118.27 140.762 1120.87 140.579 1123.51 140.215C1126.15 139.85 1128.75 139.258 1131.3 138.438C1133.86 137.617 1136.27 136.569 1138.55 135.293C1140.83 133.926 1142.88 132.331 1144.7 130.508C1143.7 134.336 1142.01 137.708 1139.64 140.625C1137.27 143.542 1134.45 145.957 1131.17 147.871C1127.98 149.785 1124.47 151.198 1120.64 152.109C1116.9 153.112 1113.17 153.613 1109.43 153.613C1104.33 153.613 1099.45 152.702 1094.8 150.879C1090.24 149.056 1086.23 146.549 1082.77 143.359C1079.4 140.169 1076.71 136.341 1074.7 131.875C1072.7 127.409 1071.7 122.533 1071.7 117.246C1071.7 111.686 1072.83 106.628 1075.11 102.07C1077.39 97.513 1080.4 93.6393 1084.14 90.4492C1087.87 87.168 1092.2 84.6615 1097.12 82.9297C1102.05 81.1979 1107.2 80.332 1112.57 80.332C1118.23 80.332 1123.28 81.3802 1127.75 83.4766C1132.31 85.5729 1136.18 88.444 1139.37 92.0898C1142.56 95.7357 1144.98 99.974 1146.62 104.805C1148.35 109.544 1149.21 114.648 1149.21 120.117ZM1128.3 113.145C1128.11 110.684 1127.61 108.314 1126.79 106.035C1125.97 103.757 1124.83 101.751 1123.38 100.02C1121.92 98.2878 1120.14 96.9206 1118.04 95.918C1116.04 94.8242 1113.67 94.2773 1110.93 94.2773C1108.2 94.2773 1105.83 94.7786 1103.82 95.7812C1101.82 96.7839 1100.13 98.151 1098.77 99.8828C1097.4 101.523 1096.26 103.483 1095.35 105.762C1094.53 107.949 1093.89 110.228 1093.43 112.598L1128.3 113.145ZM1228.38 78.2812C1228.38 82.0182 1227.24 85.1172 1224.96 87.5781C1222.68 89.9479 1219.62 91.1328 1215.8 91.1328C1212.97 91.1328 1210.78 90.6315 1209.23 89.6289C1207.68 88.5352 1206.36 87.3503 1205.27 86.0742C1204.27 84.707 1203.22 83.5221 1202.12 82.5195C1201.12 81.4258 1199.66 80.8789 1197.75 80.8789C1194.38 80.8789 1191.69 81.9727 1189.68 84.1602C1187.68 86.2565 1186.17 88.763 1185.17 91.6797C1185.08 91.862 1184.99 92.7279 1184.9 94.2773C1184.9 95.8268 1184.85 97.7865 1184.76 100.156C1184.67 102.526 1184.58 105.124 1184.49 107.949C1184.4 110.775 1184.31 113.464 1184.21 116.016C1184.12 118.568 1184.03 120.846 1183.94 122.852C1183.85 124.766 1183.8 126.042 1183.8 126.68L1217.03 138.711L1138 146.777C1142.74 143.77 1147.48 140.807 1152.22 137.891C1156.96 134.883 1161.7 131.921 1166.44 129.004L1161.38 81.2891L1130.89 73.0859L1185.99 61.0547L1185.72 73.6328C1189.55 70.9896 1193.47 68.7565 1197.48 66.9336C1201.58 65.0195 1206.09 64.0625 1211.01 64.0625C1212.65 64.0625 1214.34 64.2448 1216.07 64.6094C1217.8 64.974 1219.44 65.5208 1220.99 66.25C1222.54 66.9792 1223.91 67.9818 1225.09 69.2578C1226.28 70.4427 1227.14 71.901 1227.69 73.6328C1228.15 75.2734 1228.38 76.8229 1228.38 78.2812Z" fill="#DC387D"/>
<path d="M169.317 269.719V227.165C169.317 226.276 169.636 225.524 170.274 224.909C170.912 224.294 171.676 223.986 172.564 223.986H211.974C212.862 223.986 213.614 224.305 214.229 224.943C214.868 225.581 215.187 226.345 215.187 227.233V230.446C215.187 231.335 214.868 232.098 214.229 232.736C213.614 233.352 212.862 233.659 211.974 233.659H182.203V243.605H207.838C208.727 243.605 209.479 243.924 210.094 244.562C210.732 245.178 211.051 245.93 211.051 246.818V250.031C211.051 250.92 210.732 251.683 210.094 252.321C209.479 252.937 208.727 253.244 207.838 253.244H182.203V263.327H211.905C212.771 263.327 213.512 263.635 214.127 264.25C214.742 264.865 215.05 265.617 215.05 266.506V269.787C215.05 270.676 214.731 271.439 214.093 272.077C213.455 272.692 212.691 273 211.803 273H172.564C171.676 273 170.912 272.692 170.274 272.077C169.636 271.439 169.317 270.653 169.317 269.719ZM248.238 231.984L243.521 231.403C238.987 231.403 236.036 232.019 234.669 233.249C233.302 234.457 232.618 236.975 232.618 240.803V241.35H244.991C245.606 241.35 246.108 241.555 246.495 241.965C246.905 242.352 247.11 242.854 247.11 243.469V247.536C247.11 248.151 246.905 248.653 246.495 249.04C246.108 249.427 245.606 249.621 244.991 249.621H232.618V270.915C232.618 271.53 232.413 272.032 232.003 272.419C231.616 272.806 231.126 273 230.533 273H222.877C222.262 273 221.76 272.806 221.373 272.419C220.986 272.032 220.792 271.53 220.792 270.915V240.803C220.792 234.445 222.239 229.945 225.133 227.302C228.027 224.636 233.108 223.303 240.377 223.303C244.114 223.303 246.723 223.439 248.204 223.713C249.685 223.986 250.619 224.328 251.007 224.738C251.394 225.126 251.588 225.581 251.588 226.105V229.865C251.588 230.48 251.383 230.993 250.973 231.403C250.585 231.791 250.095 231.984 249.503 231.984H248.238ZM281.871 231.984L277.154 231.403C272.62 231.403 269.669 232.019 268.302 233.249C266.935 234.457 266.251 236.975 266.251 240.803V241.35H278.624C279.239 241.35 279.741 241.555 280.128 241.965C280.538 242.352 280.743 242.854 280.743 243.469V247.536C280.743 248.151 280.538 248.653 280.128 249.04C279.741 249.427 279.239 249.621 278.624 249.621H266.251V270.915C266.251 271.53 266.046 272.032 265.636 272.419C265.248 272.806 264.758 273 264.166 273H256.51C255.895 273 255.393 272.806 255.006 272.419C254.618 272.032 254.425 271.53 254.425 270.915V240.803C254.425 234.445 255.872 229.945 258.766 227.302C261.66 224.636 266.741 223.303 274.01 223.303C277.747 223.303 280.356 223.439 281.837 223.713C283.318 223.986 284.252 224.328 284.64 224.738C285.027 225.126 285.221 225.581 285.221 226.105V229.865C285.221 230.48 285.016 230.993 284.605 231.403C284.218 231.791 283.728 231.984 283.136 231.984H281.871ZM290.929 268.762C287.374 265.48 285.597 260.65 285.597 254.27C285.597 247.867 287.374 243.036 290.929 239.777C294.483 236.496 299.588 234.855 306.241 234.855C312.918 234.855 318.033 236.496 321.588 239.777C325.143 243.036 326.92 247.867 326.92 254.27C326.92 260.65 325.143 265.48 321.588 268.762C318.033 272.043 312.918 273.684 306.241 273.684C299.588 273.684 294.483 272.043 290.929 268.762ZM299.576 245.383C298.163 247.229 297.457 250.179 297.457 254.235C297.457 258.291 298.163 261.254 299.576 263.122C300.989 264.991 303.211 265.925 306.241 265.925C309.295 265.925 311.528 264.991 312.94 263.122C314.376 261.254 315.094 258.291 315.094 254.235C315.094 250.179 314.376 247.229 312.94 245.383C311.528 243.537 309.295 242.614 306.241 242.614C303.211 242.614 300.989 243.537 299.576 245.383ZM359.151 244.221L353.888 244.016C350.812 244.016 347.872 245.702 345.069 249.074V270.915C345.069 271.53 344.864 272.032 344.454 272.419C344.067 272.806 343.577 273 342.984 273H335.328C334.713 273 334.212 272.806 333.824 272.419C333.437 272.032 333.243 271.53 333.243 270.915V237.658C333.243 237.043 333.437 236.542 333.824 236.154C334.234 235.744 334.736 235.539 335.328 235.539H342.984C343.6 235.539 344.101 235.744 344.488 236.154C344.876 236.542 345.069 237.043 345.069 237.658V239.812C347.394 238.125 349.627 236.883 351.769 236.086C353.933 235.266 356.759 234.855 360.245 234.855C360.86 234.855 361.362 235.061 361.749 235.471C362.159 235.858 362.364 236.348 362.364 236.94V242.136C362.364 242.751 362.159 243.252 361.749 243.64C361.362 244.027 360.86 244.221 360.245 244.221H359.151ZM385.128 265.583L389.811 265.173H391.075C391.69 265.173 392.192 265.367 392.579 265.754C392.989 266.141 393.194 266.643 393.194 267.258V270.915C393.194 271.416 392.989 271.872 392.579 272.282C392.192 272.67 391.69 272.909 391.075 273C388.751 273.456 385.72 273.684 381.983 273.684C372.185 273.684 367.286 268.557 367.286 258.303V226.105C367.286 225.49 367.48 224.989 367.867 224.602C368.277 224.191 368.779 223.986 369.371 223.986H377.027C377.62 223.986 378.11 224.191 378.497 224.602C378.907 224.989 379.112 225.49 379.112 226.105V237.521H388.648C389.241 237.521 389.731 237.715 390.118 238.103C390.528 238.49 390.733 238.991 390.733 239.606V243.674C390.733 244.289 390.528 244.79 390.118 245.178C389.731 245.565 389.241 245.759 388.648 245.759H379.112V258.303C379.112 260.627 379.659 262.427 380.753 263.703C381.847 264.956 383.305 265.583 385.128 265.583ZM398.8 270.915V226.105C398.8 225.49 398.993 224.989 399.381 224.602C399.791 224.191 400.292 223.986 400.885 223.986H408.541C409.133 223.986 409.623 224.191 410.011 224.602C410.421 224.989 410.626 225.49 410.626 226.105V270.915C410.626 271.507 410.421 272.009 410.011 272.419C409.623 272.806 409.133 273 408.541 273H400.885C400.292 273 399.791 272.806 399.381 272.419C398.993 272.009 398.8 271.507 398.8 270.915ZM422.179 268.693C418.67 265.367 416.915 260.581 416.915 254.338C416.915 248.072 418.681 243.264 422.213 239.914C425.745 236.542 430.644 234.855 436.91 234.855C443.176 234.855 448.064 236.496 451.573 239.777C455.082 243.036 456.837 247.718 456.837 253.825V255.773C456.837 256.389 456.632 256.901 456.222 257.312C455.834 257.699 455.333 257.893 454.718 257.893H428.98C429.208 260.695 430.006 262.735 431.373 264.011C432.763 265.287 434.973 265.925 438.004 265.925C441.035 265.925 443.108 265.241 444.225 263.874C445.341 262.507 446.72 261.812 448.36 261.789H453.453C454.068 261.789 454.57 261.994 454.957 262.404C455.367 262.792 455.572 263.293 455.572 263.908C455.572 270.448 449.34 273.706 436.876 273.684C430.587 273.684 425.688 272.02 422.179 268.693ZM428.912 250.681H444.806C444.578 245.303 441.935 242.614 436.876 242.614C431.84 242.614 429.186 245.303 428.912 250.681ZM461.007 245.896C461.007 238.535 466.943 234.855 478.814 234.855C491.301 234.855 497.545 238.125 497.545 244.665C497.545 245.257 497.351 245.759 496.964 246.169C496.576 246.556 496.075 246.75 495.46 246.75H490.367C488.727 246.75 487.348 246.066 486.231 244.699C485.115 243.309 482.916 242.614 479.635 242.614C475.123 242.614 472.867 243.708 472.867 245.896C472.867 246.921 473.744 247.775 475.499 248.459C477.276 249.143 479.43 249.746 481.959 250.271C484.511 250.772 487.052 251.421 489.581 252.219C492.11 253.016 494.252 254.292 496.007 256.047C497.784 257.779 498.673 259.978 498.673 262.644C498.673 270.004 492.407 273.684 479.874 273.684C467.341 273.684 461.075 270.425 461.075 263.908C461.075 263.293 461.269 262.792 461.656 262.404C462.066 261.994 462.579 261.789 463.194 261.789H468.287C469.928 261.789 471.306 262.484 472.423 263.874C473.539 265.241 475.738 265.925 479.02 265.925C484.238 265.925 486.847 264.831 486.847 262.644C486.847 261.618 485.958 260.764 484.181 260.08C482.426 259.396 480.273 258.793 477.721 258.269C475.169 257.722 472.628 257.061 470.099 256.286C467.592 255.489 465.45 254.213 463.673 252.458C461.896 250.703 461.007 248.516 461.007 245.896ZM502.911 245.896C502.911 238.535 508.847 234.855 520.719 234.855C533.206 234.855 539.449 238.125 539.449 244.665C539.449 245.257 539.256 245.759 538.868 246.169C538.481 246.556 537.979 246.75 537.364 246.75H532.271C530.631 246.75 529.252 246.066 528.136 244.699C527.019 243.309 524.82 242.614 521.539 242.614C517.027 242.614 514.771 243.708 514.771 245.896C514.771 246.921 515.649 247.775 517.403 248.459C519.181 249.143 521.334 249.746 523.863 250.271C526.415 250.772 528.956 251.421 531.485 252.219C534.015 253.016 536.157 254.292 537.911 256.047C539.688 257.779 540.577 259.978 540.577 262.644C540.577 270.004 534.311 273.684 521.778 273.684C509.246 273.684 502.979 270.425 502.979 263.908C502.979 263.293 503.173 262.792 503.561 262.404C503.971 261.994 504.483 261.789 505.099 261.789H510.191C511.832 261.789 513.211 262.484 514.327 263.874C515.444 265.241 517.643 265.925 520.924 265.925C526.142 265.925 528.751 264.831 528.751 262.644C528.751 261.618 527.862 260.764 526.085 260.08C524.33 259.396 522.177 258.793 519.625 258.269C517.073 257.722 514.532 257.061 512.003 256.286C509.496 255.489 507.354 254.213 505.577 252.458C503.8 250.703 502.911 248.516 502.911 245.896ZM546.935 270.915V226.105C546.935 225.49 547.128 224.989 547.516 224.602C547.926 224.191 548.427 223.986 549.02 223.986H556.676C557.268 223.986 557.758 224.191 558.146 224.602C558.556 224.989 558.761 225.49 558.761 226.105V270.915C558.761 271.507 558.556 272.009 558.146 272.419C557.758 272.806 557.268 273 556.676 273H549.02C548.427 273 547.926 272.806 547.516 272.419C547.128 272.009 546.935 271.507 546.935 270.915ZM574.449 276.555L578.927 277.136C582.14 277.136 584.384 274.777 585.66 270.061C581.786 270.061 578.551 268.898 575.953 266.574C573.355 264.227 571.122 260.069 569.254 254.099L564.161 237.59C564.093 237.408 564.059 237.202 564.059 236.975C564.059 236.724 564.195 236.428 564.469 236.086C564.765 235.744 565.198 235.562 565.768 235.539H572.911C573.572 235.539 574.199 235.767 574.791 236.223C575.406 236.656 575.805 237.202 575.987 237.863L580.465 252.355C581.581 255.91 582.709 258.371 583.849 259.738C585.011 261.105 586.378 261.789 587.95 261.789L594.752 237.863C594.934 237.202 595.287 236.656 595.812 236.223C596.358 235.767 596.962 235.539 597.623 235.539H604.835C605.405 235.539 605.826 235.721 606.1 236.086C606.373 236.451 606.51 236.758 606.51 237.009C606.51 237.237 606.487 237.43 606.441 237.59L597.486 269.514C595.891 275.165 593.909 279.198 591.539 281.613C589.192 284.029 586.161 285.236 582.447 285.236C578.733 285.236 576.101 285.1 574.552 284.826C573.025 284.553 572.068 284.211 571.681 283.801C571.293 283.413 571.1 282.958 571.1 282.434V278.674C571.1 278.059 571.293 277.546 571.681 277.136C572.068 276.748 572.569 276.555 573.185 276.555H574.449ZM635.938 270.915V237.658C635.938 237.043 636.132 236.542 636.52 236.154C636.93 235.744 637.431 235.539 638.023 235.539H645.68C646.272 235.539 646.762 235.744 647.149 236.154C647.56 236.542 647.765 237.043 647.765 237.658V239.812C651.684 236.507 655.854 234.855 660.274 234.855C664.718 234.855 668.329 236.211 671.109 238.923C673.889 241.612 675.279 245.736 675.279 251.296V270.915C675.279 271.507 675.074 272.009 674.664 272.419C674.277 272.806 673.775 273 673.16 273H665.538C664.946 273 664.444 272.806 664.034 272.419C663.647 272.009 663.453 271.507 663.453 270.915V251.296C663.453 245.85 661.277 243.127 656.925 243.127C654.076 243.127 651.023 244.756 647.765 248.015V270.915C647.765 271.507 647.56 272.009 647.149 272.419C646.762 272.806 646.272 273 645.68 273H638.023C637.431 273 636.93 272.806 636.52 272.419C636.132 272.009 635.938 271.507 635.938 270.915ZM686.114 270.539C683.106 268.443 681.603 265.48 681.603 261.652C681.603 257.824 683.106 254.885 686.114 252.834C689.145 250.783 693.041 249.758 697.804 249.758H709.117C709.117 247.092 708.559 245.235 707.442 244.187C706.326 243.138 704.366 242.614 701.563 242.614C698.784 242.614 696.824 243.309 695.685 244.699C694.568 246.066 693.189 246.75 691.549 246.75H686.456C685.841 246.75 685.328 246.556 684.918 246.169C684.531 245.759 684.337 245.257 684.337 244.665C684.337 238.125 690.546 234.855 702.965 234.855C708.388 234.855 712.74 236.075 716.021 238.513C719.303 240.928 720.943 244.676 720.943 249.758V270.915C720.943 271.53 720.75 272.032 720.362 272.419C719.975 272.806 719.474 273 718.858 273H712.262C711.646 273 711.145 272.806 710.758 272.419C710.37 272.009 710.177 271.507 710.177 270.915V269.855C706.576 272.43 702.418 273.706 697.701 273.684C693.007 273.684 689.145 272.635 686.114 270.539ZM698.624 257.517C697.029 257.517 695.764 257.904 694.83 258.679C693.919 259.453 693.463 260.456 693.463 261.687C693.463 262.917 693.941 263.931 694.898 264.729C695.855 265.526 697.211 265.925 698.966 265.925C702.475 265.925 705.859 264.899 709.117 262.849V257.517H698.624ZM726.959 235.539H733.521C734.501 235.539 735.424 235.824 736.29 236.394C737.156 236.94 737.771 237.658 738.136 238.547L747.467 259.841L756.764 238.547C757.128 237.658 757.743 236.94 758.609 236.394C759.475 235.824 760.398 235.539 761.378 235.539H767.975C768.772 235.539 769.296 235.835 769.547 236.428C769.661 236.656 769.706 236.952 769.684 237.316C769.684 237.658 769.581 238.068 769.376 238.547L754.61 269.992C754.2 270.881 753.551 271.61 752.662 272.18C751.796 272.727 750.896 273 749.962 273H744.938C744.003 273 743.103 272.727 742.237 272.18C741.371 271.61 740.733 270.881 740.323 269.992L725.558 238.547C725.33 238.046 725.216 237.624 725.216 237.282C725.216 236.12 725.797 235.539 726.959 235.539ZM774.64 228.396V227.233C774.64 226.026 774.981 225.069 775.665 224.362C776.371 223.656 777.34 223.303 778.57 223.303H782.809C784.016 223.303 784.973 223.656 785.68 224.362C786.386 225.046 786.739 226.003 786.739 227.233V228.396C786.739 229.603 786.386 230.56 785.68 231.267C784.996 231.973 784.039 232.326 782.809 232.326H778.57C777.363 232.326 776.406 231.973 775.699 231.267C774.993 230.56 774.64 229.603 774.64 228.396ZM774.776 270.915V238.479C774.776 237.863 774.97 237.362 775.357 236.975C775.768 236.587 776.269 236.394 776.861 236.394H784.518C785.133 236.394 785.634 236.599 786.021 237.009C786.409 237.396 786.603 237.886 786.603 238.479V270.915C786.603 271.53 786.397 272.032 785.987 272.419C785.6 272.806 785.11 273 784.518 273H776.861C776.246 273 775.745 272.806 775.357 272.419C774.97 272.032 774.776 271.53 774.776 270.915ZM810.323 270.129C805.151 270.129 800.969 268.568 797.779 265.446C794.612 262.325 793.028 257.995 793.028 252.458C793.028 246.921 794.84 242.603 798.463 239.504C802.086 236.405 807.281 234.855 814.049 234.855C817.353 234.855 820.782 235.231 824.337 235.983C827.892 236.713 830.569 237.613 832.369 238.684V270.334C832.369 275.415 830.694 279.164 827.345 281.579C823.995 284.017 819.29 285.236 813.229 285.236C807.19 285.236 802.53 284.473 799.249 282.946C795.991 281.442 794.361 278.947 794.361 275.461C794.361 274.846 794.555 274.333 794.942 273.923C795.353 273.535 795.865 273.342 796.48 273.342H801.573C803.214 273.342 804.524 273.946 805.504 275.153C806.757 276.703 808.979 277.478 812.169 277.478C815.382 277.478 817.581 276.953 818.766 275.905C819.951 274.857 820.543 273 820.543 270.334V268.728C816.897 269.662 813.491 270.129 810.323 270.129ZM813.331 243.127C807.931 243.104 805.23 246.226 805.23 252.492C805.23 258.736 807.862 261.857 813.126 261.857C815.313 261.857 817.786 261.516 820.543 260.832V243.879C818.583 243.355 816.179 243.104 813.331 243.127ZM843.204 270.539C840.196 268.443 838.692 265.48 838.692 261.652C838.692 257.824 840.196 254.885 843.204 252.834C846.235 250.783 850.131 249.758 854.894 249.758H866.207C866.207 247.092 865.649 245.235 864.532 244.187C863.416 243.138 861.456 242.614 858.653 242.614C855.873 242.614 853.914 243.309 852.774 244.699C851.658 246.066 850.279 246.75 848.639 246.75H843.546C842.931 246.75 842.418 246.556 842.008 246.169C841.62 245.759 841.427 245.257 841.427 244.665C841.427 238.125 847.636 234.855 860.055 234.855C865.478 234.855 869.83 236.075 873.111 238.513C876.393 240.928 878.033 244.676 878.033 249.758V270.915C878.033 271.53 877.84 272.032 877.452 272.419C877.065 272.806 876.563 273 875.948 273H869.352C868.736 273 868.235 272.806 867.848 272.419C867.46 272.009 867.267 271.507 867.267 270.915V269.855C863.666 272.43 859.508 273.706 854.791 273.684C850.097 273.684 846.235 272.635 843.204 270.539ZM855.714 257.517C854.119 257.517 852.854 257.904 851.92 258.679C851.008 259.453 850.553 260.456 850.553 261.687C850.553 262.917 851.031 263.931 851.988 264.729C852.945 265.526 854.301 265.925 856.056 265.925C859.565 265.925 862.949 264.899 866.207 262.849V257.517H855.714ZM904.317 265.583L909 265.173H910.265C910.88 265.173 911.381 265.367 911.769 265.754C912.179 266.141 912.384 266.643 912.384 267.258V270.915C912.384 271.416 912.179 271.872 911.769 272.282C911.381 272.67 910.88 272.909 910.265 273C907.94 273.456 904.91 273.684 901.173 273.684C891.375 273.684 886.476 268.557 886.476 258.303V226.105C886.476 225.49 886.669 224.989 887.057 224.602C887.467 224.191 887.968 223.986 888.561 223.986H896.217C896.809 223.986 897.299 224.191 897.687 224.602C898.097 224.989 898.302 225.49 898.302 226.105V237.521H907.838C908.43 237.521 908.92 237.715 909.308 238.103C909.718 238.49 909.923 238.991 909.923 239.606V243.674C909.923 244.289 909.718 244.79 909.308 245.178C908.92 245.565 908.43 245.759 907.838 245.759H898.302V258.303C898.302 260.627 898.849 262.427 899.942 263.703C901.036 264.956 902.494 265.583 904.317 265.583ZM920.792 268.693C917.283 265.367 915.528 260.581 915.528 254.338C915.528 248.072 917.294 243.264 920.826 239.914C924.358 236.542 929.257 234.855 935.523 234.855C941.79 234.855 946.677 236.496 950.187 239.777C953.696 243.036 955.45 247.718 955.45 253.825V255.773C955.45 256.389 955.245 256.901 954.835 257.312C954.448 257.699 953.946 257.893 953.331 257.893H927.594C927.822 260.695 928.619 262.735 929.986 264.011C931.376 265.287 933.587 265.925 936.617 265.925C939.648 265.925 941.721 265.241 942.838 263.874C943.954 262.507 945.333 261.812 946.974 261.789H952.066C952.682 261.789 953.183 261.994 953.57 262.404C953.98 262.792 954.186 263.293 954.186 263.908C954.186 270.448 947.953 273.706 935.489 273.684C929.2 273.684 924.301 272.02 920.792 268.693ZM927.525 250.681H943.419C943.191 245.303 940.548 242.614 935.489 242.614C930.453 242.614 927.799 245.303 927.525 250.681ZM993.561 276.555L998.038 277.136C1001.25 277.136 1003.5 274.777 1004.77 270.061C1000.9 270.061 997.662 268.898 995.064 266.574C992.467 264.227 990.234 260.069 988.365 254.099L983.272 237.59C983.204 237.408 983.17 237.202 983.17 236.975C983.17 236.724 983.307 236.428 983.58 236.086C983.876 235.744 984.309 235.562 984.879 235.539H992.022C992.683 235.539 993.31 235.767 993.902 236.223C994.518 236.656 994.916 237.202 995.099 237.863L999.576 252.355C1000.69 255.91 1001.82 258.371 1002.96 259.738C1004.12 261.105 1005.49 261.789 1007.06 261.789L1013.86 237.863C1014.05 237.202 1014.4 236.656 1014.92 236.223C1015.47 235.767 1016.07 235.539 1016.73 235.539H1023.95C1024.52 235.539 1024.94 235.721 1025.21 236.086C1025.48 236.451 1025.62 236.758 1025.62 237.009C1025.62 237.237 1025.6 237.43 1025.55 237.59L1016.6 269.514C1015 275.165 1013.02 279.198 1010.65 281.613C1008.3 284.029 1005.27 285.236 1001.56 285.236C997.844 285.236 995.213 285.1 993.663 284.826C992.136 284.553 991.179 284.211 990.792 283.801C990.405 283.413 990.211 282.958 990.211 282.434V278.674C990.211 278.059 990.405 277.546 990.792 277.136C991.179 276.748 991.681 276.555 992.296 276.555H993.561ZM1033.38 268.762C1029.83 265.48 1028.05 260.65 1028.05 254.27C1028.05 247.867 1029.83 243.036 1033.38 239.777C1036.93 236.496 1042.04 234.855 1048.69 234.855C1055.37 234.855 1060.48 236.496 1064.04 239.777C1067.59 243.036 1069.37 247.867 1069.37 254.27C1069.37 260.65 1067.59 265.48 1064.04 268.762C1060.48 272.043 1055.37 273.684 1048.69 273.684C1042.04 273.684 1036.93 272.043 1033.38 268.762ZM1042.03 245.383C1040.61 247.229 1039.91 250.179 1039.91 254.235C1039.91 258.291 1040.61 261.254 1042.03 263.122C1043.44 264.991 1045.66 265.925 1048.69 265.925C1051.75 265.925 1053.98 264.991 1055.39 263.122C1056.83 261.254 1057.54 258.291 1057.54 254.235C1057.54 250.179 1056.83 247.229 1055.39 245.383C1053.98 243.537 1051.75 242.614 1048.69 242.614C1045.66 242.614 1043.44 243.537 1042.03 245.383ZM1075.69 257.243V237.658C1075.69 237.043 1075.89 236.542 1076.28 236.154C1076.69 235.744 1077.19 235.539 1077.78 235.539H1085.44C1086.03 235.539 1086.52 235.744 1086.91 236.154C1087.32 236.542 1087.52 237.043 1087.52 237.658V257.243C1087.52 262.712 1089.69 265.446 1094.01 265.446C1096.86 265.446 1099.93 263.806 1103.21 260.524V237.658C1103.21 237.043 1103.4 236.542 1103.79 236.154C1104.2 235.744 1104.7 235.539 1105.29 235.539H1112.92C1113.53 235.539 1114.03 235.744 1114.42 236.154C1114.83 236.542 1115.04 237.043 1115.04 237.658V270.915C1115.04 271.507 1114.83 272.009 1114.42 272.419C1114.03 272.806 1113.53 273 1112.92 273H1105.29C1104.7 273 1104.2 272.806 1103.79 272.419C1103.4 272.009 1103.21 271.507 1103.21 270.915V268.728C1099.29 272.032 1095.11 273.684 1090.67 273.684C1086.24 273.684 1082.64 272.339 1079.86 269.65C1077.08 266.939 1075.69 262.803 1075.69 257.243ZM1149.39 244.221L1144.12 244.016C1141.05 244.016 1138.11 245.702 1135.3 249.074V270.915C1135.3 271.53 1135.1 272.032 1134.69 272.419C1134.3 272.806 1133.81 273 1133.22 273H1125.56C1124.95 273 1124.45 272.806 1124.06 272.419C1123.67 272.032 1123.48 271.53 1123.48 270.915V237.658C1123.48 237.043 1123.67 236.542 1124.06 236.154C1124.47 235.744 1124.97 235.539 1125.56 235.539H1133.22C1133.83 235.539 1134.34 235.744 1134.72 236.154C1135.11 236.542 1135.3 237.043 1135.3 237.658V239.812C1137.63 238.125 1139.86 236.883 1142 236.086C1144.17 235.266 1146.99 234.855 1150.48 234.855C1151.09 234.855 1151.6 235.061 1151.98 235.471C1152.39 235.858 1152.6 236.348 1152.6 236.94V242.136C1152.6 242.751 1152.39 243.252 1151.98 243.64C1151.6 244.027 1151.09 244.221 1150.48 244.221H1149.39ZM1179.94 245.896C1179.94 238.535 1185.88 234.855 1197.75 234.855C1210.24 234.855 1216.48 238.125 1216.48 244.665C1216.48 245.257 1216.29 245.759 1215.9 246.169C1215.51 246.556 1215.01 246.75 1214.4 246.75H1209.3C1207.66 246.75 1206.28 246.066 1205.17 244.699C1204.05 243.309 1201.85 242.614 1198.57 242.614C1194.06 242.614 1191.8 243.708 1191.8 245.896C1191.8 246.921 1192.68 247.775 1194.43 248.459C1196.21 249.143 1198.37 249.746 1200.89 250.271C1203.45 250.772 1205.99 251.421 1208.52 252.219C1211.05 253.016 1213.19 254.292 1214.94 256.047C1216.72 257.779 1217.61 259.978 1217.61 262.644C1217.61 270.004 1211.34 273.684 1198.81 273.684C1186.28 273.684 1180.01 270.425 1180.01 263.908C1180.01 263.293 1180.2 262.792 1180.59 262.404C1181 261.994 1181.51 261.789 1182.13 261.789H1187.22C1188.86 261.789 1190.24 262.484 1191.36 263.874C1192.47 265.241 1194.67 265.925 1197.96 265.925C1203.17 265.925 1205.78 264.831 1205.78 262.644C1205.78 261.618 1204.89 260.764 1203.12 260.08C1201.36 259.396 1199.21 258.793 1196.66 258.269C1194.1 257.722 1191.56 257.061 1189.03 256.286C1186.53 255.489 1184.39 254.213 1182.61 252.458C1180.83 250.703 1179.94 248.516 1179.94 245.896ZM1242.08 273.684C1235.7 273.684 1230.73 272.043 1227.18 268.762C1223.62 265.48 1221.85 260.661 1221.85 254.304C1221.85 247.924 1223.61 243.093 1227.14 239.812C1230.68 236.507 1235.59 234.855 1241.88 234.855C1248.19 234.855 1253.03 235.858 1256.4 237.863C1259.8 239.868 1261.5 242.831 1261.5 246.75C1261.5 247.365 1261.29 247.867 1260.88 248.254C1260.49 248.641 1259.99 248.835 1259.38 248.835H1254.28C1252.73 248.835 1251.42 248.003 1250.35 246.34C1249.01 244.198 1246.63 243.127 1243.21 243.127C1239.81 243.127 1237.43 244.004 1236.07 245.759C1234.72 247.491 1234.05 250.327 1234.05 254.27C1234.05 258.212 1234.74 261.06 1236.13 262.814C1237.55 264.569 1239.98 265.446 1243.45 265.446C1246.93 265.446 1249.35 264.375 1250.69 262.233C1251.77 260.547 1253.08 259.704 1254.62 259.704H1259.72C1260.33 259.704 1260.83 259.909 1261.22 260.319C1261.63 260.707 1261.84 261.197 1261.84 261.789C1261.84 265.708 1260.14 268.671 1256.74 270.676C1253.37 272.681 1248.48 273.684 1242.08 273.684ZM1267.44 270.915V226.105C1267.44 225.49 1267.64 224.989 1268.02 224.602C1268.43 224.191 1268.93 223.986 1269.53 223.986H1277.18C1277.78 223.986 1278.27 224.191 1278.65 224.602C1279.06 224.989 1279.27 225.49 1279.27 226.105V239.812C1283.19 236.507 1287.36 234.855 1291.78 234.855C1296.22 234.855 1299.83 236.211 1302.61 238.923C1305.39 241.612 1306.78 245.736 1306.78 251.296V270.915C1306.78 271.507 1306.58 272.009 1306.17 272.419C1305.78 272.806 1305.28 273 1304.66 273H1297.04C1296.45 273 1295.95 272.806 1295.54 272.419C1295.15 272.009 1294.96 271.507 1294.96 270.915V251.296C1294.96 245.85 1292.78 243.127 1288.43 243.127C1285.58 243.127 1282.53 244.756 1279.27 248.015V270.915C1279.27 271.507 1279.06 272.009 1278.65 272.419C1278.27 272.806 1277.78 273 1277.18 273H1269.53C1268.93 273 1268.43 272.806 1268.02 272.419C1267.64 272.009 1267.44 271.507 1267.44 270.915ZM1318.37 268.693C1314.86 265.367 1313.11 260.581 1313.11 254.338C1313.11 248.072 1314.87 243.264 1318.4 239.914C1321.94 236.542 1326.84 234.855 1333.1 234.855C1339.37 234.855 1344.26 236.496 1347.76 239.777C1351.27 243.036 1353.03 247.718 1353.03 253.825V255.773C1353.03 256.389 1352.82 256.901 1352.41 257.312C1352.03 257.699 1351.52 257.893 1350.91 257.893H1325.17C1325.4 260.695 1326.2 262.735 1327.56 264.011C1328.95 265.287 1331.16 265.925 1334.2 265.925C1337.23 265.925 1339.3 265.241 1340.42 263.874C1341.53 262.507 1342.91 261.812 1344.55 261.789H1349.64C1350.26 261.789 1350.76 261.994 1351.15 262.404C1351.56 262.792 1351.76 263.293 1351.76 263.908C1351.76 270.448 1345.53 273.706 1333.07 273.684C1326.78 273.684 1321.88 272.02 1318.37 268.693ZM1325.1 250.681H1341C1340.77 245.303 1338.13 242.614 1333.07 242.614C1328.03 242.614 1325.38 245.303 1325.1 250.681ZM1373.95 273.684C1369.18 273.684 1365.2 272.009 1361.98 268.659C1358.79 265.31 1357.2 260.513 1357.2 254.27C1357.2 248.003 1358.85 243.207 1362.15 239.88C1365.48 236.53 1369.95 234.855 1375.55 234.855C1378.45 234.855 1381.74 235.437 1385.43 236.599V226.105C1385.43 225.49 1385.62 224.989 1386.01 224.602C1386.42 224.191 1386.92 223.986 1387.52 223.986H1395.14C1395.75 223.986 1396.25 224.191 1396.64 224.602C1397.05 224.989 1397.26 225.49 1397.26 226.105V270.915C1397.26 271.507 1397.05 272.009 1396.64 272.419C1396.25 272.806 1395.75 273 1395.14 273H1388.58C1387.96 273 1387.46 272.806 1387.07 272.419C1386.68 272.009 1386.49 271.507 1386.49 270.915V269.855C1382.89 272.408 1378.71 273.684 1373.95 273.684ZM1378.01 243.127C1374.87 243.127 1372.65 244.016 1371.35 245.793C1370.05 247.548 1369.4 250.373 1369.4 254.27C1369.4 258.166 1370.02 261.003 1371.25 262.78C1372.48 264.558 1374.32 265.446 1376.78 265.446C1379.27 265.446 1382.15 264.421 1385.43 262.37V244.494C1382.49 243.583 1380.02 243.127 1378.01 243.127ZM1405.67 257.243V237.658C1405.67 237.043 1405.86 236.542 1406.25 236.154C1406.66 235.744 1407.16 235.539 1407.75 235.539H1415.41C1416 235.539 1416.49 235.744 1416.88 236.154C1417.29 236.542 1417.49 237.043 1417.49 237.658V257.243C1417.49 262.712 1419.66 265.446 1423.99 265.446C1426.83 265.446 1429.9 263.806 1433.18 260.524V237.658C1433.18 237.043 1433.37 236.542 1433.76 236.154C1434.17 235.744 1434.67 235.539 1435.26 235.539H1442.89C1443.5 235.539 1444 235.744 1444.39 236.154C1444.8 236.542 1445.01 237.043 1445.01 237.658V270.915C1445.01 271.507 1444.8 272.009 1444.39 272.419C1444 272.806 1443.5 273 1442.89 273H1435.26C1434.67 273 1434.17 272.806 1433.76 272.419C1433.37 272.009 1433.18 271.507 1433.18 270.915V268.728C1429.26 272.032 1425.08 273.684 1420.64 273.684C1416.22 273.684 1412.61 272.339 1409.83 269.65C1407.06 266.939 1405.67 262.803 1405.67 257.243ZM1453.45 270.915V226.105C1453.45 225.49 1453.64 224.989 1454.03 224.602C1454.44 224.191 1454.94 223.986 1455.53 223.986H1463.19C1463.78 223.986 1464.27 224.191 1464.66 224.602C1465.07 224.989 1465.27 225.49 1465.27 226.105V270.915C1465.27 271.507 1465.07 272.009 1464.66 272.419C1464.27 272.806 1463.78 273 1463.19 273H1455.53C1454.94 273 1454.44 272.806 1454.03 272.419C1453.64 272.009 1453.45 271.507 1453.45 270.915ZM1476.83 268.693C1473.32 265.367 1471.56 260.581 1471.56 254.338C1471.56 248.072 1473.33 243.264 1476.86 239.914C1480.39 236.542 1485.29 234.855 1491.56 234.855C1497.82 234.855 1502.71 236.496 1506.22 239.777C1509.73 243.036 1511.49 247.718 1511.49 253.825V255.773C1511.49 256.389 1511.28 256.901 1510.87 257.312C1510.48 257.699 1509.98 257.893 1509.37 257.893H1483.63C1483.86 260.695 1484.65 262.735 1486.02 264.011C1487.41 265.287 1489.62 265.925 1492.65 265.925C1495.68 265.925 1497.76 265.241 1498.87 263.874C1499.99 262.507 1501.37 261.812 1503.01 261.789H1508.1C1508.72 261.789 1509.22 261.994 1509.61 262.404C1510.02 262.792 1510.22 263.293 1510.22 263.908C1510.22 270.448 1503.99 273.706 1491.52 273.684C1485.24 273.684 1480.34 272.02 1476.83 268.693ZM1483.56 250.681H1499.45C1499.23 245.303 1496.58 242.614 1491.52 242.614C1486.49 242.614 1483.83 245.303 1483.56 250.681Z" fill="#BE04FF"/>
<defs>
<filter id="filter0_d_205_176" x="0" y="357" width="1675" height="1312" filterUnits="userSpaceOnUse" color-interpolation-filters="sRGB">
<feFlood flood-opacity="0" result="BackgroundImageFix"/>
<feColorMatrix in="SourceAlpha" type="matrix" values="0 0 0 0 0 0 0 0 0 0 0 0 0 0 0 0 0 0 127 0" result="hardAlpha"/>
<feOffset dx="-50" dy="40"/>
<feGaussianBlur stdDeviation="2"/>
<feComposite in2="hardAlpha" operator="out"/>
<feColorMatrix type="matrix" values="0 0 0 0 0.246667 0 0 0 0 0.246667 0 0 0 0 0.246667 0 0 0 0.25 0"/>
<feBlend mode="normal" in2="BackgroundImageFix" result="effect1_dropShadow_205_176"/>
<feBlend mode="normal" in="SourceGraphic" in2="effect1_dropShadow_205_176" result="shape"/>
</filter>
<filter id="filter1_i_205_176" x="218" y="452" width="1245" height="1029" filterUnits="userSpaceOnUse" color-interpolation-filters="sRGB">
<feFlood flood-opacity="0" result="BackgroundImageFix"/>
<feBlend mode="normal" in="SourceGraphic" in2="BackgroundImageFix" result="shape"/>
<feColorMatrix in="SourceAlpha" type="matrix" values="0 0 0 0 0 0 0 0 0 0 0 0 0 0 0 0 0 0 127 0" result="hardAlpha"/>
<feOffset dx="30" dy="-25"/>
<feGaussianBlur stdDeviation="2"/>
<feComposite in2="hardAlpha" operator="arithmetic" k2="-1" k3="1"/>
<feColorMatrix type="matrix" values="0 0 0 0 0.71074 0 0 0 0 0.714343 0 0 0 0 0.800833 0 0 0 1 0"/>
<feBlend mode="normal" in2="shape" result="effect1_innerShadow_205_176"/>
</filter>
<filter id="filter2_i_205_176" x="218" y="454.163" width="1245" height="256.25" filterUnits="userSpaceOnUse" color-interpolation-filters="sRGB">
<feFlood flood-opacity="0" result="BackgroundImageFix"/>
<feBlend mode="normal" in="SourceGraphic" in2="BackgroundImageFix" result="shape"/>
<feColorMatrix in="SourceAlpha" type="matrix" values="0 0 0 0 0 0 0 0 0 0 0 0 0 0 0 0 0 0 127 0" result="hardAlpha"/>
<feOffset dx="30"/>
<feGaussianBlur stdDeviation="2"/>
<feComposite in2="hardAlpha" operator="arithmetic" k2="-1" k3="1"/>
<feColorMatrix type="matrix" values="0 0 0 0 0.421667 0 0 0 0 0.147583 0 0 0 0 0.147583 0 0 0 0.4 0"/>
<feBlend mode="normal" in2="shape" result="effect1_innerShadow_205_176"/>
</filter>
<filter id="filter3_i_205_176" x="419" y="353" width="66" height="185" filterUnits="userSpaceOnUse" color-interpolation-filters="sRGB">
<feFlood flood-opacity="0" result="BackgroundImageFix"/>
<feBlend mode="normal" in="SourceGraphic" in2="BackgroundImageFix" result="shape"/>
<feColorMatrix in="SourceAlpha" type="matrix" values="0 0 0 0 0 0 0 0 0 0 0 0 0 0 0 0 0 0 127 0" result="hardAlpha"/>
<feOffset dx="12" dy="-4"/>
<feGaussianBlur stdDeviation="2"/>
<feComposite in2="hardAlpha" operator="arithmetic" k2="-1" k3="1"/>
<feColorMatrix type="matrix" values="0 0 0 0 0.130208 0 0 0 0 0.145833 0 0 0 0 0.520833 0 0 0 0.25 0"/>
<feBlend mode="normal" in2="shape" result="effect1_innerShadow_205_176"/>
</filter>
<filter id="filter4_i_205_176" x="614" y="353" width="66" height="185" filterUnits="userSpaceOnUse" color-interpolation-filters="sRGB">
<feFlood flood-opacity="0" result="BackgroundImageFix"/>
<feBlend mode="normal" in="SourceGraphic" in2="BackgroundImageFix" result="shape"/>
<feColorMatrix in="SourceAlpha" type="matrix" values="0 0 0 0 0 0 0 0 0 0 0 0 0 0 0 0 0 0 127 0" result="hardAlpha"/>
<feOffset dx="12" dy="-4"/>
<feGaussianBlur stdDeviation="2"/>
<feComposite in2="hardAlpha" operator="arithmetic" k2="-1" k3="1"/>
<feColorMatrix type="matrix" values="0 0 0 0 0.130208 0 0 0 0 0.145833 0 0 0 0 0.520833 0 0 0 0.25 0"/>
<feBlend mode="normal" in2="shape" result="effect1_innerShadow_205_176"/>
</filter>
<filter id="filter5_i_205_176" x="808" y="353" width="66" height="185" filterUnits="userSpaceOnUse" color-interpolation-filters="sRGB">
<feFlood flood-opacity="0" result="BackgroundImageFix"/>
<feBlend mode="normal" in="SourceGraphic" in2="BackgroundImageFix" result="shape"/>
<feColorMatrix in="SourceAlpha" type="matrix" values="0 0 0 0 0 0 0 0 0 0 0 0 0 0 0 0 0 0 127 0" result="hardAlpha"/>
<feOffset dx="12" dy="-4"/>
<feGaussianBlur stdDeviation="2"/>
<feComposite in2="hardAlpha" operator="arithmetic" k2="-1" k3="1"/>
<feColorMatrix type="matrix" values="0 0 0 0 0.130208 0 0 0 0 0.145833 0 0 0 0 0.520833 0 0 0 0.25 0"/>
<feBlend mode="normal" in2="shape" result="effect1_innerShadow_205_176"/>
</filter>
<filter id="filter6_i_205_176" x="1003" y="353" width="66" height="185" filterUnits="userSpaceOnUse" color-interpolation-filters="sRGB">
<feFlood flood-opacity="0" result="BackgroundImageFix"/>
<feBlend mode="normal" in="SourceGraphic" in2="BackgroundImageFix" result="shape"/>
<feColorMatrix in="SourceAlpha" type="matrix" values="0 0 0 0 0 0 0 0 0 0 0 0 0 0 0 0 0 0 127 0" result="hardAlpha"/>
<feOffset dx="12" dy="-4"/>
<feGaussianBlur stdDeviation="2"/>
<feComposite in2="hardAlpha" operator="arithmetic" k2="-1" k3="1"/>
<feColorMatrix type="matrix" values="0 0 0 0 0.130208 0 0 0 0 0.145833 0 0 0 0 0.520833 0 0 0 0.25 0"/>
<feBlend mode="normal" in2="shape" result="effect1_innerShadow_205_176"/>
</filter>
<filter id="filter7_i_205_176" x="1197" y="353" width="66" height="185" filterUnits="userSpaceOnUse" color-interpolation-filters="sRGB">
<feFlood flood-opacity="0" result="BackgroundImageFix"/>
<feBlend mode="normal" in="SourceGraphic" in2="BackgroundImageFix" result="shape"/>
<feColorMatrix in="SourceAlpha" type="matrix" values="0 0 0 0 0 0 0 0 0 0 0 0 0 0 0 0 0 0 127 0" result="hardAlpha"/>
<feOffset dx="12" dy="-4"/>
<feGaussianBlur stdDeviation="2"/>
<feComposite in2="hardAlpha" operator="arithmetic" k2="-1" k3="1"/>
<feColorMatrix type="matrix" values="0 0 0 0 0.130208 0 0 0 0 0.145833 0 0 0 0 0.520833 0 0 0 0.25 0"/>
<feBlend mode="normal" in2="shape" result="effect1_innerShadow_205_176"/>
</filter>
<clipPath id="clip0_205_176">
<rect width="172" height="172" fill="white" transform="translate(146 894)"/>
</clipPath>
</defs>
</svg>
